<svg xmlns="http://www.w3.org/2000/svg" viewBox="0 0 32 32">
  <defs>
    <linearGradient id="atlas-bg" x1="0" y1="0" x2="1" y2="1">
      <stop offset="0%" stop-color="#7a85e9"/>
      <stop offset="100%" stop-color="#4c5ab8"/>
    </linearGradient>
  </defs>
  <rect width="32" height="32" rx="7" fill="url(#atlas-bg)"/>
  <path fill="#fff" d="M16 5.8l1.9 5.7 5.7 1.9-5.7 1.9L16 21l-1.9-5.7-5.7-1.9 5.7-1.9L16 5.8zm8.2 12.4l.9 2.4 2.4.9-2.4.9-.9 2.4-.9-2.4-2.4-.9 2.4-.9.9-2.4zm-16 3.2l.6 1.8 1.8.6-1.8.6-.6 1.8-.6-1.8-1.8-.6 1.8-.6.6-1.8z"/>
</svg>
